<svg width="42" height="42" viewBox="0 0 42 42" fill="none" xmlns="http://www.w3.org/2000/svg">
<path fill-rule="evenodd" clip-rule="evenodd" d="M21 39C27 33.9956 29 27.9956 29 21C29 14.0044 27 8.00439 21 3C15 8.00439 13 14.0044 13 21C13 27.9956 15 33.9956 21 39Z" stroke="black" stroke-width="2" stroke-linecap="round" stroke-linejoin="round"/>
<path d="M28.124 28.7234C28.9729 29.2138 29.7536 29.8153 30.4663 30.528C32.7043 32.766 33.8465 35.676 33.8931 39.2581C28.8765 39.0384 26.1289 37.7289 24.042 35.9638M13.8111 28.7234C12.9622 29.2138 12.1814 29.8153 11.4688 30.528C9.23077 32.766 8.0885 35.676 8.04199 39.2581C13.0585 39.0384 15.8061 37.7289 17.8931 35.9638" stroke="black" stroke-width="2" stroke-linecap="round" stroke-linejoin="round"/>
<path d="M21 19C23.2091 19 25 17.2091 25 15C25 12.7909 23.2091 11 21 11C18.7909 11 17 12.7909 17 15C17 17.2091 18.7909 19 21 19Z" stroke="black" stroke-width="2" stroke-linecap="round" stroke-linejoin="round"/>
</svg>
