<svg width="42" height="42" viewBox="0 0 42 42" fill="none" xmlns="http://www.w3.org/2000/svg">
<path fill-rule="evenodd" clip-rule="evenodd" d="M37 13.1818C34.3333 11.7273 31.6667 11 29 11C26.3333 11 23.6667 11.7273 21 13.1818V33C23.6667 31.6667 26.3333 31 29 31C31.6667 31 34.3333 31.6667 37 33V13.1818Z" stroke="black" stroke-width="2" stroke-linecap="round" stroke-linejoin="round"/>
<path d="M33.1119 15.5764C31.7413 15.1921 30.3707 15 29 15C27.6294 15 26.2588 15.1921 24.8882 15.5764M33.1119 19.5764C31.7413 19.1921 30.3707 19 29 19C27.6294 19 26.2588 19.1921 24.8882 19.5764M33.1119 23.5764C31.7413 23.1921 30.3707 23 29 23C27.6294 23 26.2588 23.1921 24.8882 23.5764M33.1119 27.5764C31.7413 27.1921 30.3707 27 29 27C27.6294 27 26.2588 27.1921 24.8882 27.5764M17.1119 15.5764C15.7413 15.1921 14.3707 15 13 15C11.6294 15 10.2588 15.1921 8.88818 15.5764M17.1119 19.5764C15.7413 19.1921 14.3707 19 13 19C11.6294 19 10.2588 19.1921 8.88818 19.5764M17.1119 23.5764C15.7413 23.1921 14.3707 23 13 23C11.6294 23 10.2588 23.1921 8.88818 23.5764M17.1119 27.5764C15.7413 27.1921 14.3707 27 13 27C11.6294 27 10.2588 27.1921 8.88818 27.5764" stroke="black" stroke-width="2" stroke-linecap="round" stroke-linejoin="round"/>
<path fill-rule="evenodd" clip-rule="evenodd" d="M21 13.1818C18.3333 11.7273 15.6667 11 13 11C10.3333 11 7.66667 11.7273 5 13.1818V33C7.66667 31.6667 10.3333 31 13 31C15.6667 31 18.3333 31.6667 21 33V13.1818Z" stroke="black" stroke-width="2" stroke-linecap="round" stroke-linejoin="round"/>
</svg>
