<svg width="1173" height="986" viewBox="0 0 1173 986" fill="none" xmlns="http://www.w3.org/2000/svg">
<path d="M1167.46 450.879C1132.51 392.189 1086.34 340.958 1031.6 300.109C976.849 259.26 914.592 229.595 848.38 212.807C782.169 196.018 713.298 192.436 645.702 202.264C578.106 212.091 513.107 235.137 454.417 270.085L498.133 343.5C547.182 314.293 601.503 295.033 657.996 286.82C714.488 278.607 772.045 281.601 827.38 295.631C882.715 309.662 934.745 334.454 980.499 368.592C1026.25 402.73 1064.83 445.546 1094.04 494.595L1167.46 450.879Z" fill="#FF7F7B"/>
<path d="M454.417 270.085C395.727 305.032 344.495 351.198 303.647 405.945C262.798 460.692 233.133 522.949 216.344 589.161C199.556 655.372 195.973 724.243 205.801 791.839C215.629 859.435 238.675 924.434 273.622 983.124L385.595 916.448C359.403 872.463 342.132 823.749 334.766 773.089C327.401 722.428 330.086 670.813 342.668 621.191C355.25 571.568 377.483 524.909 408.097 483.879C438.711 442.848 477.107 408.249 521.093 382.058L454.417 270.085Z" fill="#B286F8"/>
</svg>
