<svg width="1151" height="1151" viewBox="0 0 1151 1151" fill="none" xmlns="http://www.w3.org/2000/svg">
<path d="M1029 453.502C1013.04 393.948 985.513 338.119 947.979 289.204C910.446 240.29 863.645 199.247 810.25 168.419C756.855 137.591 697.91 117.582 636.782 109.535C575.654 101.487 513.539 105.558 453.985 121.516L473.946 196.013C523.718 182.676 575.629 179.274 626.715 186C677.802 192.725 727.064 209.447 771.688 235.211C816.312 260.975 855.424 295.276 886.792 336.155C918.16 377.035 941.169 423.692 954.505 473.464L1029 453.502Z" fill="#86DFEF"/>
<path d="M106 575.018C106 636.673 118.144 697.725 141.739 754.687C165.333 811.65 199.916 863.407 243.513 907.004C287.11 950.601 338.868 985.184 395.83 1008.78C452.792 1032.37 513.844 1044.52 575.5 1044.52V994.485C520.415 994.485 465.869 983.635 414.977 962.555C364.085 941.475 317.843 910.577 278.892 871.626C239.941 832.675 209.043 786.433 187.963 735.541C166.882 684.649 156.033 630.103 156.033 575.018H106Z" fill="#FFD463"/>
<path d="M575.5 105.518C513.844 105.518 452.792 117.662 395.83 141.256C338.868 164.851 287.11 199.434 243.513 243.031C199.916 286.628 165.333 338.385 141.739 395.348C118.144 452.31 106 513.362 106 575.018H223.631C223.631 528.81 232.732 483.054 250.415 440.363C268.098 397.672 294.017 358.883 326.691 326.209C359.365 293.534 398.155 267.616 440.845 249.933C483.536 232.25 529.292 223.148 575.5 223.148V105.518Z" fill="#B286F8"/>
</svg>
